<?xml version="1.0" encoding="UTF-8" standalone="no"?>
<!DOCTYPE svg PUBLIC "-//W3C//DTD SVG 1.1//EN"
 "http://www.w3.org/Graphics/SVG/1.1/DTD/svg11.dtd">
<!-- Generated by graphviz version 2.46.0 (20210119.1425)
 -->
<!-- Title: dependencies Pages: 1 -->
<svg width="1617pt" height="290pt"
 viewBox="0.00 0.00 1617.00 290.00" xmlns="http://www.w3.org/2000/svg" xmlns:xlink="http://www.w3.org/1999/xlink">
<g id="graph0" class="graph" transform="scale(1 1) rotate(0) translate(4 286)">
<title>dependencies</title>
<polygon fill="white" stroke="transparent" points="-4,4 -4,-286 1613,-286 1613,4 -4,4"/>
<text text-anchor="start" x="783.51" y="-42.4" font-family="sans-serif" font-weight="bold" font-size="14.00">Legend</text>
<polygon fill="#ffffb3" stroke="transparent" points="570.5,-10 570.5,-30 590.5,-30 590.5,-10 570.5,-10"/>
<text text-anchor="start" x="594.13" y="-15.4" font-family="sans-serif" font-size="14.00"> &#160;Declarations</text>
<polygon fill="#8dd3c7" stroke="transparent" points="683.5,-10 683.5,-30 703.5,-30 703.5,-10 683.5,-10"/>
<text text-anchor="start" x="707.23" y="-15.4" font-family="sans-serif" font-size="14.00"> &#160;Module</text>
<polygon fill="#80b1d3" stroke="transparent" points="769.5,-10 769.5,-30 789.5,-30 789.5,-10 769.5,-10"/>
<text text-anchor="start" x="793.28" y="-15.4" font-family="sans-serif" font-size="14.00"> &#160;Bootstrap</text>
<polygon fill="#fdb462" stroke="transparent" points="866.5,-10 866.5,-30 886.5,-30 886.5,-10 866.5,-10"/>
<text text-anchor="start" x="890.17" y="-15.4" font-family="sans-serif" font-size="14.00"> &#160;Providers</text>
<polygon fill="#fb8072" stroke="transparent" points="962.5,-10 962.5,-30 982.5,-30 982.5,-10 962.5,-10"/>
<text text-anchor="start" x="986.23" y="-15.4" font-family="sans-serif" font-size="14.00"> &#160;Exports</text>
<g id="clust1" class="cluster">
<title>cluster_AppModule</title>
<polygon fill="none" stroke="black" stroke-dasharray="1,5" points="8,-70 8,-274 256,-274 256,-70 8,-70"/>
</g>
<g id="clust2" class="cluster">
<title>cluster_AppModule_declarations</title>
<polygon fill="none" stroke="black" points="16,-78 16,-130 138,-130 138,-78 16,-78"/>
</g>
<g id="clust4" class="cluster">
<title>cluster_AppModule_imports</title>
<polygon fill="none" stroke="black" points="146,-78 146,-130 248,-130 248,-78 146,-78"/>
</g>
<g id="clust6" class="cluster">
<title>cluster_AppModule_bootstrap</title>
<polygon fill="none" stroke="black" points="70,-214 70,-266 194,-266 194,-214 70,-214"/>
</g>
<g id="clust8" class="cluster">
<title>cluster_ComponentsModule</title>
<polygon fill="none" stroke="black" stroke-dasharray="1,5" points="1167,-70 1167,-274 1477,-274 1477,-70 1167,-70"/>
</g>
<g id="clust9" class="cluster">
<title>cluster_ComponentsModule_declarations</title>
<polygon fill="none" stroke="black" points="1175,-78 1175,-130 1463,-130 1463,-78 1175,-78"/>
</g>
<g id="clust13" class="cluster">
<title>cluster_ComponentsModule_exports</title>
<polygon fill="none" stroke="black" points="1175,-214 1175,-266 1469,-266 1469,-214 1175,-214"/>
</g>
<g id="clust16" class="cluster">
<title>cluster_CoreModule</title>
<polygon fill="none" stroke="black" stroke-dasharray="1,5" points="264,-138 264,-206 1159,-206 1159,-138 264,-138"/>
</g>
<g id="clust17" class="cluster">
<title>cluster_CoreModule_declarations</title>
<polygon fill="none" stroke="black" points="721,-146 721,-198 1151,-198 1151,-146 721,-146"/>
</g>
<g id="clust22" class="cluster">
<title>cluster_CoreModule_exports</title>
<polygon fill="none" stroke="black" points="272,-146 272,-198 713,-198 713,-146 272,-146"/>
</g>
<g id="clust25" class="cluster">
<title>cluster_PipesModule</title>
<polygon fill="none" stroke="black" stroke-dasharray="1,5" points="1485,-70 1485,-274 1601,-274 1601,-70 1485,-70"/>
</g>
<g id="clust26" class="cluster">
<title>cluster_PipesModule_declarations</title>
<polygon fill="none" stroke="black" points="1495,-78 1495,-130 1591,-130 1591,-78 1495,-78"/>
</g>
<g id="clust29" class="cluster">
<title>cluster_PipesModule_exports</title>
<polygon fill="none" stroke="black" points="1493,-214 1493,-266 1593,-266 1593,-214 1493,-214"/>
</g>
<!-- AppComponent -->
<g id="node1" class="node">
<title>AppComponent</title>
<polygon fill="#ffffb3" stroke="black" points="129.94,-122 24.06,-122 24.06,-86 129.94,-86 129.94,-122"/>
<text text-anchor="middle" x="77" y="-99.8" font-family="Times,serif" font-size="14.00">AppComponent</text>
</g>
<!-- AppModule -->
<g id="node2" class="node">
<title>AppModule</title>
<polygon fill="#8dd3c7" stroke="black" points="173.66,-190 170.66,-194 149.66,-194 146.66,-190 90.34,-190 90.34,-154 173.66,-154 173.66,-190"/>
<text text-anchor="middle" x="132" y="-167.8" font-family="Times,serif" font-size="14.00">AppModule</text>
</g>
<!-- AppComponent&#45;&gt;AppModule -->
<g id="edge1" class="edge">
<title>AppComponent&#45;&gt;AppModule</title>
<path fill="none" stroke="black" d="M109.95,-122.22C109.95,-122.22 109.95,-143.73 109.95,-143.73"/>
<polygon fill="black" stroke="black" points="106.45,-143.73 109.95,-153.73 113.45,-143.73 106.45,-143.73"/>
</g>
<!-- AppComponent  -->
<g id="node4" class="node">
<title>AppComponent </title>
<polygon fill="#80b1d3" stroke="black" points="186.44,-258 77.56,-258 77.56,-222 186.44,-222 186.44,-258"/>
<text text-anchor="middle" x="132" y="-235.8" font-family="Times,serif" font-size="14.00">AppComponent </text>
</g>
<!-- AppModule&#45;&gt;AppComponent  -->
<g id="edge3" class="edge">
<title>AppModule&#45;&gt;AppComponent </title>
<path fill="none" stroke="black" stroke-dasharray="1,5" d="M132,-190.22C132,-190.22 132,-211.73 132,-211.73"/>
<polygon fill="black" stroke="black" points="128.5,-211.73 132,-221.73 135.5,-211.73 128.5,-211.73"/>
</g>
<!-- CoreModule -->
<g id="node3" class="node">
<title>CoreModule</title>
<polygon fill="#8dd3c7" stroke="black" points="240.26,-122 237.26,-126 216.26,-126 213.26,-122 153.74,-122 153.74,-86 240.26,-86 240.26,-122"/>
<text text-anchor="middle" x="197" y="-99.8" font-family="Times,serif" font-size="14.00">CoreModule</text>
</g>
<!-- CoreModule&#45;&gt;AppModule -->
<g id="edge2" class="edge">
<title>CoreModule&#45;&gt;AppModule</title>
<path fill="none" stroke="black" d="M163.72,-122.22C163.72,-122.22 163.72,-143.73 163.72,-143.73"/>
<polygon fill="black" stroke="black" points="160.22,-143.73 163.72,-153.73 167.22,-143.73 160.22,-143.73"/>
</g>
<!-- DashboardComponent  -->
<g id="node13" class="node">
<title>DashboardComponent </title>
<polygon fill="#fb8072" stroke="black" points="704.97,-190 559.03,-190 559.03,-154 704.97,-154 704.97,-190"/>
<text text-anchor="middle" x="632" y="-167.8" font-family="Times,serif" font-size="14.00">DashboardComponent </text>
</g>
<!-- CoreModule&#45;&gt;DashboardComponent  -->
<g id="edge11" class="edge">
<title>CoreModule&#45;&gt;DashboardComponent </title>
<path fill="none" stroke="black" stroke-dasharray="5,2" d="M240.3,-110C350.33,-110 632,-110 632,-110 632,-110 632,-143.73 632,-143.73"/>
<polygon fill="black" stroke="black" points="628.5,-143.73 632,-153.73 635.5,-143.73 628.5,-143.73"/>
</g>
<!-- HeaderComponent  -->
<g id="node14" class="node">
<title>HeaderComponent </title>
<polygon fill="#fb8072" stroke="black" points="541.74,-190 416.26,-190 416.26,-154 541.74,-154 541.74,-190"/>
<text text-anchor="middle" x="479" y="-167.8" font-family="Times,serif" font-size="14.00">HeaderComponent </text>
</g>
<!-- CoreModule&#45;&gt;HeaderComponent  -->
<g id="edge12" class="edge">
<title>CoreModule&#45;&gt;HeaderComponent </title>
<path fill="none" stroke="black" stroke-dasharray="5,2" d="M240.44,-116C319.55,-116 479,-116 479,-116 479,-116 479,-143.97 479,-143.97"/>
<polygon fill="black" stroke="black" points="475.5,-143.97 479,-153.97 482.5,-143.97 475.5,-143.97"/>
</g>
<!-- LoginComponent  -->
<g id="node15" class="node">
<title>LoginComponent </title>
<polygon fill="#fb8072" stroke="black" points="398.28,-190 279.72,-190 279.72,-154 398.28,-154 398.28,-190"/>
<text text-anchor="middle" x="339" y="-167.8" font-family="Times,serif" font-size="14.00">LoginComponent </text>
</g>
<!-- CoreModule&#45;&gt;LoginComponent  -->
<g id="edge13" class="edge">
<title>CoreModule&#45;&gt;LoginComponent </title>
<path fill="none" stroke="black" stroke-dasharray="5,2" d="M213.43,-122.22C213.43,-142.37 213.43,-172 213.43,-172 213.43,-172 269.52,-172 269.52,-172"/>
<polygon fill="black" stroke="black" points="269.52,-175.5 279.52,-172 269.52,-168.5 269.52,-175.5"/>
</g>
<!-- AccordionComponent -->
<g id="node5" class="node">
<title>AccordionComponent</title>
<polygon fill="#ffffb3" stroke="black" points="1455.42,-122 1314.58,-122 1314.58,-86 1455.42,-86 1455.42,-122"/>
<text text-anchor="middle" x="1385" y="-99.8" font-family="Times,serif" font-size="14.00">AccordionComponent</text>
</g>
<!-- ComponentsModule -->
<g id="node7" class="node">
<title>ComponentsModule</title>
<polygon fill="#8dd3c7" stroke="black" points="1378.33,-190 1375.33,-194 1354.33,-194 1351.33,-190 1247.67,-190 1247.67,-154 1378.33,-154 1378.33,-190"/>
<text text-anchor="middle" x="1313" y="-167.8" font-family="Times,serif" font-size="14.00">ComponentsModule</text>
</g>
<!-- AccordionComponent&#45;&gt;ComponentsModule -->
<g id="edge4" class="edge">
<title>AccordionComponent&#45;&gt;ComponentsModule</title>
<path fill="none" stroke="black" d="M1346.48,-122.22C1346.48,-122.22 1346.48,-143.73 1346.48,-143.73"/>
<polygon fill="black" stroke="black" points="1342.98,-143.73 1346.48,-153.73 1349.98,-143.73 1342.98,-143.73"/>
</g>
<!-- TableComponent -->
<g id="node6" class="node">
<title>TableComponent</title>
<polygon fill="#ffffb3" stroke="black" points="1296.7,-122 1183.3,-122 1183.3,-86 1296.7,-86 1296.7,-122"/>
<text text-anchor="middle" x="1240" y="-99.8" font-family="Times,serif" font-size="14.00">TableComponent</text>
</g>
<!-- TableComponent&#45;&gt;ComponentsModule -->
<g id="edge5" class="edge">
<title>TableComponent&#45;&gt;ComponentsModule</title>
<path fill="none" stroke="black" d="M1272.22,-122.22C1272.22,-122.22 1272.22,-143.73 1272.22,-143.73"/>
<polygon fill="black" stroke="black" points="1268.72,-143.73 1272.22,-153.73 1275.72,-143.73 1268.72,-143.73"/>
</g>
<!-- AccordionComponent  -->
<g id="node8" class="node">
<title>AccordionComponent </title>
<polygon fill="#fb8072" stroke="black" points="1460.92,-258 1317.08,-258 1317.08,-222 1460.92,-222 1460.92,-258"/>
<text text-anchor="middle" x="1389" y="-235.8" font-family="Times,serif" font-size="14.00">AccordionComponent </text>
</g>
<!-- ComponentsModule&#45;&gt;AccordionComponent  -->
<g id="edge6" class="edge">
<title>ComponentsModule&#45;&gt;AccordionComponent </title>
<path fill="none" stroke="black" stroke-dasharray="5,2" d="M1347.6,-190.22C1347.6,-190.22 1347.6,-211.73 1347.6,-211.73"/>
<polygon fill="black" stroke="black" points="1344.1,-211.73 1347.6,-221.73 1351.1,-211.73 1344.1,-211.73"/>
</g>
<!-- TableComponent  -->
<g id="node9" class="node">
<title>TableComponent </title>
<polygon fill="#fb8072" stroke="black" points="1299.21,-258 1182.79,-258 1182.79,-222 1299.21,-222 1299.21,-258"/>
<text text-anchor="middle" x="1241" y="-235.8" font-family="Times,serif" font-size="14.00">TableComponent </text>
</g>
<!-- ComponentsModule&#45;&gt;TableComponent  -->
<g id="edge7" class="edge">
<title>ComponentsModule&#45;&gt;TableComponent </title>
<path fill="none" stroke="black" stroke-dasharray="5,2" d="M1273.59,-190.22C1273.59,-190.22 1273.59,-211.73 1273.59,-211.73"/>
<polygon fill="black" stroke="black" points="1270.09,-211.73 1273.59,-221.73 1277.09,-211.73 1270.09,-211.73"/>
</g>
<!-- DashboardComponent -->
<g id="node10" class="node">
<title>DashboardComponent</title>
<polygon fill="#ffffb3" stroke="black" points="1142.97,-190 1001.03,-190 1001.03,-154 1142.97,-154 1142.97,-190"/>
<text text-anchor="middle" x="1072" y="-167.8" font-family="Times,serif" font-size="14.00">DashboardComponent</text>
</g>
<!-- DashboardComponent&#45;&gt;CoreModule -->
<g id="edge8" class="edge">
<title>DashboardComponent&#45;&gt;CoreModule</title>
<path fill="none" stroke="black" d="M1072,-153.85C1072,-130.24 1072,-92 1072,-92 1072,-92 250.39,-92 250.39,-92"/>
<polygon fill="black" stroke="black" points="250.39,-88.5 240.39,-92 250.39,-95.5 250.39,-88.5"/>
</g>
<!-- HeaderComponent -->
<g id="node11" class="node">
<title>HeaderComponent</title>
<polygon fill="#ffffb3" stroke="black" points="982.74,-190 861.26,-190 861.26,-154 982.74,-154 982.74,-190"/>
<text text-anchor="middle" x="922" y="-167.8" font-family="Times,serif" font-size="14.00">HeaderComponent</text>
</g>
<!-- HeaderComponent&#45;&gt;CoreModule -->
<g id="edge9" class="edge">
<title>HeaderComponent&#45;&gt;CoreModule</title>
<path fill="none" stroke="black" d="M922,-153.71C922,-131.79 922,-98 922,-98 922,-98 250.45,-98 250.45,-98"/>
<polygon fill="black" stroke="black" points="250.45,-94.5 240.45,-98 250.45,-101.5 250.45,-94.5"/>
</g>
<!-- LoginComponent -->
<g id="node12" class="node">
<title>LoginComponent</title>
<polygon fill="#ffffb3" stroke="black" points="843.28,-190 728.72,-190 728.72,-154 843.28,-154 843.28,-190"/>
<text text-anchor="middle" x="786" y="-167.8" font-family="Times,serif" font-size="14.00">LoginComponent</text>
</g>
<!-- LoginComponent&#45;&gt;CoreModule -->
<g id="edge10" class="edge">
<title>LoginComponent&#45;&gt;CoreModule</title>
<path fill="none" stroke="black" d="M786,-153.78C786,-133.63 786,-104 786,-104 786,-104 250.31,-104 250.31,-104"/>
<polygon fill="black" stroke="black" points="250.31,-100.5 240.31,-104 250.31,-107.5 250.31,-100.5"/>
</g>
<!-- YesNoPipe -->
<g id="node16" class="node">
<title>YesNoPipe</title>
<polygon fill="#ffffb3" stroke="black" points="1582.76,-122 1503.24,-122 1503.24,-86 1582.76,-86 1582.76,-122"/>
<text text-anchor="middle" x="1543" y="-99.8" font-family="Times,serif" font-size="14.00">YesNoPipe</text>
</g>
<!-- PipesModule -->
<g id="node17" class="node">
<title>PipesModule</title>
<polygon fill="#8dd3c7" stroke="black" points="1587.88,-190 1584.88,-194 1563.88,-194 1560.88,-190 1498.12,-190 1498.12,-154 1587.88,-154 1587.88,-190"/>
<text text-anchor="middle" x="1543" y="-167.8" font-family="Times,serif" font-size="14.00">PipesModule</text>
</g>
<!-- YesNoPipe&#45;&gt;PipesModule -->
<g id="edge14" class="edge">
<title>YesNoPipe&#45;&gt;PipesModule</title>
<path fill="none" stroke="black" d="M1543,-122.22C1543,-122.22 1543,-143.73 1543,-143.73"/>
<polygon fill="black" stroke="black" points="1539.5,-143.73 1543,-153.73 1546.5,-143.73 1539.5,-143.73"/>
</g>
<!-- YesNoPipe  -->
<g id="node18" class="node">
<title>YesNoPipe </title>
<polygon fill="#fb8072" stroke="black" points="1584.76,-258 1501.24,-258 1501.24,-222 1584.76,-222 1584.76,-258"/>
<text text-anchor="middle" x="1543" y="-235.8" font-family="Times,serif" font-size="14.00">YesNoPipe </text>
</g>
<!-- PipesModule&#45;&gt;YesNoPipe  -->
<g id="edge15" class="edge">
<title>PipesModule&#45;&gt;YesNoPipe </title>
<path fill="none" stroke="black" stroke-dasharray="5,2" d="M1543,-190.22C1543,-190.22 1543,-211.73 1543,-211.73"/>
<polygon fill="black" stroke="black" points="1539.5,-211.73 1543,-221.73 1546.5,-211.73 1539.5,-211.73"/>
</g>
</g>
</svg>
